<svg width="1920" height="1519" viewBox="0 0 1920 1519" fill="none" xmlns="http://www.w3.org/2000/svg">
<mask id="mask0_16_5064" style="mask-type:alpha" maskUnits="userSpaceOnUse" x="1096" y="102" width="768" height="680">
<rect x="1715.13" y="102.871" width="514.068" height="646.364" transform="rotate(73.2361 1715.13 102.871)" fill="url(#paint0_linear_16_5064)"/>
</mask>
<g mask="url(#mask0_16_5064)">
<path d="M1445.9 648.482C1345.62 678.689 1239.84 621.885 1209.64 521.609C1179.43 421.333 1236.24 315.555 1336.51 285.349C1436.79 255.143 1407.45 352.648 1437.65 452.924C1467.86 553.201 1546.17 618.276 1445.9 648.482Z" fill="#2A79FF"/>
<g filter="url(#filter0_f_16_5064)">
<path d="M1442.28 649.572C1364.65 672.955 1277.24 610.62 1247.04 510.343C1216.83 410.067 1255.27 309.821 1332.89 286.439C1410.51 263.057 1497.93 325.392 1528.13 425.668C1558.34 525.945 1519.9 626.19 1442.28 649.572Z" fill="#2A79FF"/>
</g>
<g filter="url(#filter1_f_16_5064)">
<ellipse cx="1394.82" cy="465.825" rx="189.625" ry="146.786" transform="rotate(73.2361 1394.82 465.825)" fill="#2A79FF"/>
</g>
<g filter="url(#filter2_f_16_5064)">
<ellipse cx="1414.73" cy="459.829" rx="189.625" ry="147.416" transform="rotate(73.2361 1414.73 459.829)" fill="#2A79FF"/>
</g>
<g filter="url(#filter3_f_16_5064)">
<ellipse cx="1474.45" cy="441.84" rx="189.625" ry="146.786" transform="rotate(73.2361 1474.45 441.84)" fill="#2A79FF"/>
</g>
<g filter="url(#filter4_f_16_5064)">
<ellipse cx="1555.28" cy="417.491" rx="159.386" ry="146.786" transform="rotate(73.2361 1555.28 417.491)" fill="#2A79FF"/>
</g>
</g>
<mask id="mask1_16_5064" style="mask-type:alpha" maskUnits="userSpaceOnUse" x="-73" y="-662" width="2230" height="2023">
<path d="M2156.36 146.284C1915.63 476.075 1400.31 1459.86 1305.87 1352.76L-72.1938 551.705L690.612 -661.972L2156.36 146.284Z" fill="url(#paint1_linear_16_5064)"/>
</mask>
<g mask="url(#mask1_16_5064)">
<path d="M853.688 835.716C735.824 749.93 722.78 559.573 799.928 453.576C877.076 347.58 1026.03 243.206 1152.49 335.247C1215.15 380.857 1342.81 365.382 1378.85 472.355C1415.53 581.25 1293.08 713.273 1254.16 766.743C1177.01 872.739 971.552 921.502 853.688 835.716Z" fill="#2A79FF"/>
<g filter="url(#filter5_f_16_5064)">
<path d="M861.712 827.663C735.305 735.659 718.807 568.188 785.121 477.077C851.435 385.966 986.153 301.111 1112.56 393.115C1175.2 438.707 1297.31 430.789 1338.71 530.328C1380.85 631.655 1273.18 743.381 1239.73 789.342C1173.42 880.453 988.118 919.666 861.712 827.663Z" fill="#2A79FF"/>
</g>
<g filter="url(#filter6_f_16_5064)">
<path d="M857.881 824.876C716.204 721.758 706.003 522.665 787.76 410.336C869.517 298.008 1030.26 189.502 1171.94 292.62C1242.15 343.72 1391.79 317.291 1434.49 433.939C1477.95 552.683 1340.22 701.333 1298.98 757.998C1217.23 870.326 999.559 927.994 857.881 824.876Z" fill="#2A79FF"/>
</g>
<g filter="url(#filter7_f_16_5064)">
<path d="M851.215 799.673C696.349 644.806 657.497 393.659 753.183 262.193C848.869 130.727 1041.09 53.2234 1211.01 176.893C1295.21 238.177 1507.73 173.675 1560.12 311.953C1613.45 452.716 1459.79 615.165 1411.52 681.484C1315.84 812.95 1030.62 979.078 851.215 799.673Z" fill="#2A79FF"/>
</g>
<g filter="url(#filter8_f_16_5064)">
<path d="M831.004 703.572C648.051 570.413 613.831 286.395 707.384 157.86C800.937 29.3245 997.667 -40.0519 1180.62 93.1078C1271.28 159.095 1417.06 190.162 1478.19 332.568C1540.42 477.532 1387.89 634.691 1340.7 699.531C1247.14 828.067 1013.96 836.732 831.004 703.572Z" fill="#2A79FF"/>
</g>
<g filter="url(#filter9_f_16_5064)">
<path d="M797.139 600.438C608.074 462.83 571.404 171.12 667.089 39.6544C762.775 -91.8117 965.005 -162.032 1154.07 -24.4238C1247.76 43.7678 1398.04 76.3927 1461.7 222.877C1526.5 371.993 1370.24 532.544 1321.97 598.862C1226.28 730.328 986.203 738.046 797.139 600.438Z" fill="#2A79FF"/>
</g>
<g filter="url(#filter10_f_16_5064)">
<path d="M924.128 724.841C758.696 604.434 742.371 327.533 838.057 196.067C933.743 64.6005 1123.62 -14.6075 1289.06 105.8C1371.03 165.467 1496.03 202.944 1545.77 339.302C1596.42 478.109 1443.37 641.003 1395.1 707.322C1299.41 838.788 1089.56 845.248 924.128 724.841Z" fill="#2A79FF"/>
</g>
</g>
<g opacity="0.6">
<mask id="mask2_16_5064" style="mask-type:alpha" maskUnits="userSpaceOnUse" x="441" y="150" width="497" height="612">
<path d="M925.66 418.349C829.6 363.441 522.146 165.238 503.13 150.602L441.628 428.242L532.224 544.378L765.176 647.308L829.75 761.467L937.576 545.443L925.66 418.349Z" fill="url(#paint2_linear_16_5064)"/>
</mask>
<g mask="url(#mask2_16_5064)">
<path d="M872.767 552.615C875.659 479.337 826.622 462.174 768.449 433.656C760.131 437.078 730.593 468.175 678.981 565.192C614.466 686.464 667.571 824.162 686.403 802.813C705.236 781.464 869.875 625.893 872.767 552.615Z" fill="black"/>
<g filter="url(#filter11_f_16_5064)">
<path d="M865.813 556.661C867.999 477.621 796.375 447.807 731.923 416.238C664 390.847 685.679 494.3 630.163 598.294C560.768 728.286 650.939 837.993 671.388 815.211C691.836 792.429 863.628 635.701 865.813 556.661Z" fill="black"/>
</g>
<g filter="url(#filter12_f_16_5064)">
<path d="M856.15 576.305C858.594 493.876 808.962 442.911 742.046 410.131C732.567 413.883 692.435 479.601 634.512 588.169C562.107 723.879 624.513 879.466 645.815 855.663C667.116 831.861 853.707 658.735 856.15 576.305Z" fill="black"/>
</g>
<g filter="url(#filter13_f_16_5064)">
<path d="M859.385 563.761C860.898 471.756 796.281 448.669 719.372 411.029C708.608 415.072 674.369 377.316 609.918 497.649C529.354 648.066 599.614 898.691 623.566 872.442C647.518 846.194 857.872 655.767 859.385 563.761Z" fill="black"/>
</g>
<g filter="url(#filter14_f_16_5064)">
<path d="M839.722 578.296C842.87 471.335 765.511 434.918 678.637 392.361C666.334 397.227 616.282 456.133 541.123 596.996C447.175 773.075 528.231 974.986 555.876 944.106C583.52 913.226 836.574 685.257 839.722 578.296Z" fill="black"/>
</g>
<g filter="url(#filter15_f_16_5064)">
<path d="M835.24 535.113C838.672 418.874 671.645 346.887 577.258 300.65C563.89 305.939 584.356 441.315 502.677 594.404C400.577 785.766 488.625 1005.18 518.665 971.618C548.706 938.056 831.807 651.351 835.24 535.113Z" fill="black"/>
</g>
</g>
</g>
<g opacity="0.6">
<mask id="mask3_16_5064" style="mask-type:alpha" maskUnits="userSpaceOnUse" x="1203" y="53" width="468" height="542">
<path d="M1559.03 541.164C1578.75 432.29 1663.03 76.3297 1670.49 53.52L1388.23 88.1575L1308.97 212.305L1289.65 466.25L1203.57 565.207L1443.19 594.794L1559.03 541.164Z" fill="url(#paint3_linear_16_5064)"/>
</mask>
<g mask="url(#mask3_16_5064)">
<path d="M1414.81 536.09C1484.85 514.372 1484.67 462.419 1492.15 398.064C1486.15 391.365 1446.98 373.893 1338.31 357.6C1202.46 337.235 1090.36 433.232 1116.77 443.864C1143.18 454.496 1344.76 557.808 1414.81 536.09Z" fill="black"/>
<g filter="url(#filter16_f_16_5064)">
<path d="M1408.67 530.885C1483.91 506.579 1488.13 429.112 1496.39 357.821C1497.67 285.318 1407.37 340.265 1290.82 322.62C1145.12 300.564 1071.78 422.167 1100.08 433.845C1128.37 445.522 1333.43 555.191 1408.67 530.885Z" fill="black"/>
</g>
<g filter="url(#filter17_f_16_5064)">
<path d="M1386.93 528.328C1465.45 503.135 1496.94 439.344 1505.52 365.326C1498.82 357.642 1423.48 341.732 1301.81 323.343C1149.72 300.356 1023.86 411.089 1053.41 423.231C1082.95 435.372 1308.41 553.522 1386.93 528.328Z" fill="black"/>
</g>
<g filter="url(#filter18_f_16_5064)">
<path d="M1399.83 527.193C1487.08 497.928 1487.28 429.31 1497.11 344.251C1489.71 335.452 1513.88 290.58 1378.94 269.961C1210.27 244.189 997.434 394.029 1030.17 407.853C1062.9 421.677 1312.59 556.458 1399.83 527.193Z" fill="black"/>
</g>
<g filter="url(#filter19_f_16_5064)">
<path d="M1379.57 513.505C1481.46 480.792 1489.98 395.716 1501.12 299.622C1492.43 289.647 1420.2 262.112 1262.34 238.249C1065 208.419 901.698 352.187 940.031 367.947C978.364 383.706 1277.69 546.219 1379.57 513.505Z" fill="black"/>
</g>
<g filter="url(#filter20_f_16_5064)">
<path d="M1418.79 494.874C1529.51 459.335 1541.66 277.861 1553.76 173.457C1544.32 162.618 1423.52 227.072 1251.95 201.139C1037.5 168.724 860.021 324.921 901.682 342.045C943.342 359.169 1308.06 530.414 1418.79 494.874Z" fill="black"/>
</g>
</g>
</g>
<path d="M586.478 764.125C573.849 750.259 567.56 733.176 573.762 707.128C594.798 619.23 656.435 543.975 648.294 449.039C644.07 400.299 618.869 358.478 581.826 327.249C406.583 180.007 233.096 253.585 179.75 301.24C125.077 350.056 149.762 439.239 175.216 496.616C206.552 567.328 247.037 637.413 248.845 716.694C250.743 800.406 269.279 990.416 300.935 1071.91C323.269 1129.41 381.248 1208.43 442.56 1215.43C503.872 1222.44 566.883 1160.24 615.01 1121.67C663.138 1083.09 851.451 1245.57 875.626 1188.73C908.133 1112.29 846.415 1022.1 801.866 964.572C756.692 906.254 703.725 854.451 645.745 808.884C624.252 792.093 601.119 780.252 586.478 764.125Z" stroke="url(#paint4_linear_16_5064)" stroke-opacity="0.2" stroke-width="3"/>
<path d="M172.426 287.98C114.165 339.97 140.562 435.081 167.616 496.225C200.928 571.582 244.23 646.29 246.034 730.826C248.021 820.042 256.538 1003.65 290.325 1090.53C314.129 1151.9 375.968 1228.49 441.407 1235.97C499.889 1242.65 559.693 1187.61 606.786 1152.86C655.311 1117.08 826.242 1256.06 853.173 1202.28C890.352 1127.82 843.793 1038.76 809.085 977.7C774.286 916.387 729.246 861.071 677.175 811.879C657.876 793.667 636.74 780.023 622.706 762.771C610.643 748.134 604.026 730.774 607.749 705.518C613.413 667.464 624.076 631.654 633.27 596.154C641.15 565.879 647.824 535.704 648.697 504.031C649.138 488.673 647.72 472.863 644.496 456.13C635.597 410.678 608.923 370.242 570.573 337.908C513.571 290.063 456.928 261.013 403.647 246.442C303.817 219.026 213.667 251.126 172.426 287.98Z" stroke="url(#paint5_linear_16_5064)" stroke-opacity="0.2" stroke-width="3"/>
<path d="M164.984 274.707C103.136 329.87 131.126 430.897 159.898 495.821C195.306 575.837 241.188 655.139 243.225 744.958C245.298 839.679 243.783 1017.01 279.585 1109.25C304.871 1174.37 370.676 1248.67 440.005 1256.59C495.776 1262.97 552.386 1214.97 598.313 1184.14C647.353 1151.17 801.006 1266.8 830.352 1215.92C872.322 1143.44 840.673 1055.61 815.923 991.024C791.251 926.807 754.505 867.9 708.343 815.083C691.341 795.581 672.203 780.135 658.671 761.626C647.187 746.099 640.14 728.332 641.37 703.986C643.27 666.458 647.772 631.257 650.528 596.693C652.913 567.462 654.157 538.817 650.674 508.677C648.963 494.386 645.419 479.409 640.319 463.417C627.084 421.411 598.48 382.188 559.059 348.775C503.73 301.958 448.752 268.799 395.66 248.396C303.456 212.773 211.943 232.773 164.984 274.707Z" stroke="url(#paint6_linear_16_5064)" stroke-opacity="0.2" stroke-width="3"/>
<path d="M157.543 261.434C92.0933 319.888 121.69 426.713 152.049 495.521C189.552 580.196 238.119 664.225 240.166 759.181C242.445 859.42 230.793 1030.33 268.61 1127.94C295.377 1196.82 365.03 1268.8 438.486 1277.2C491.427 1283.25 545.065 1242.44 589.84 1215.43C639.382 1185.37 775.784 1277.41 807.65 1229.57C854.528 1159.08 837.658 1072.58 822.894 1004.24C808.466 937.136 779.896 874.624 739.657 818.065C724.834 797.259 707.812 780.024 694.768 760.377C683.864 743.961 676.372 725.904 675.227 702.481C673.364 665.478 671.704 630.887 668.036 597.142C664.913 569.073 660.858 541.853 652.901 513.231C649.169 499.904 643.472 485.995 636.523 470.508C619.069 431.962 588.535 393.951 547.925 359.448C494.126 313.88 440.903 276.86 387.935 250.141C302.975 207.582 210.218 214.419 157.543 261.434Z" stroke="url(#paint7_linear_16_5064)" stroke-opacity="0.2" stroke-width="3"/>
<path d="M150.102 248.16C81.064 309.788 112.254 422.529 144.331 495.117C183.798 584.555 235.077 673.075 237.356 773.313C239.723 879.057 218.039 1043.69 258.001 1146.56C286.238 1219.31 359.868 1288.88 437.32 1297.85C487.431 1303.58 538.203 1270.08 581.617 1246.62C631.765 1219.62 750.902 1288.18 785.21 1243.01C837.232 1174.54 834.774 1089.45 830.113 1017.37C825.667 947.583 805.405 881.362 771.074 821.178C758.549 799.082 743.525 780.045 730.969 759.259C720.631 742.071 712.708 723.607 709.083 700.975C703.235 664.353 695.74 630.648 685.53 597.708C677.149 570.71 667.558 544.888 654.983 518.008C649.229 505.645 641.394 492.685 632.45 477.926C611.028 442.749 578.196 406.028 536.515 370.447C484.258 326.011 432.723 285.72 379.921 252.331C302.295 203.085 208.625 195.962 150.102 248.16Z" stroke="url(#paint8_linear_16_5064)" stroke-opacity="0.2" stroke-width="3"/>
<path d="M142.66 234.887C70.0347 299.688 102.818 418.345 136.613 494.712C178.176 588.81 232.153 681.938 234.442 787.314C236.896 898.562 205.075 1056.78 247.157 1165.15C276.875 1241.65 354.353 1308.91 435.932 1318.36C483.213 1323.76 531.118 1297.58 573.157 1277.78C624.03 1253.85 725.915 1298.83 762.403 1256.53C819.674 1190.21 831.287 1106.37 836.965 1030.58C842.383 958.094 830.546 888.178 802.151 824.133C791.792 800.851 778.897 779.907 766.962 757.878C757.189 739.919 748.717 721.034 742.835 699.339C732.989 663.215 719.817 630.056 702.92 598.143C689.266 572.334 674.377 547.937 657.092 522.55C649.435 511.163 639.591 499.049 628.535 485.004C603.394 453.104 568.12 417.897 525.145 381.092C474.431 337.789 424.176 294.657 371.843 254.035C301.18 199.254 206.901 177.608 142.66 234.887Z" stroke="url(#paint9_linear_16_5064)" stroke-opacity="0.2" stroke-width="3"/>
<path d="M135.323 221.745C59.1097 289.72 93.5 414.174 128.895 494.308C172.553 593.065 229.11 690.788 231.632 801.446C234.292 918.212 192.334 1070.01 236.43 1183.75C267.631 1264 349.061 1329.09 434.544 1338.86C479.113 1343.96 524.019 1325.2 564.698 1308.95C616.281 1288.21 701.033 1309.6 739.714 1270.06C802.337 1206.03 827.931 1123.19 843.948 1043.68C859.125 968.369 855.832 894.771 833.464 827.115C825.285 802.529 814.387 779.783 803.058 756.629C793.865 737.781 784.83 718.592 776.691 697.833C762.728 662.194 744.103 629.726 720.427 598.591C701.515 573.854 681.222 550.75 659.318 527.104C649.64 516.681 637.789 505.412 624.607 492.2C595.891 463.355 557.926 429.751 513.893 391.75C464.722 349.579 415.353 303.921 363.986 255.885C299.552 195.724 205.176 159.255 135.323 221.745Z" stroke="url(#paint10_linear_16_5064)" stroke-opacity="0.2" stroke-width="3"/>
<path d="M127.882 208.472C48.0672 279.738 84.1687 410.121 121.282 494.035C167.035 597.451 226.291 699.783 228.809 815.696C231.556 937.967 179.567 1083.48 225.795 1202.6C258.346 1286.71 343.755 1349.39 433.365 1359.63C475.104 1364.4 517.221 1353.33 556.565 1340.39C608.95 1323.08 676.464 1320.77 717.352 1283.87C785.301 1222.36 824.785 1140.27 851.127 1057.16C875.946 979.011 881.182 901.849 864.855 830.464C858.855 804.575 849.955 780.026 839.233 755.747C830.488 736.114 820.904 716.504 810.521 696.564C792.414 661.646 768.271 629.383 737.895 599.393C713.855 575.622 688.145 553.93 661.491 532.131C649.91 522.684 636.064 512.143 620.638 499.749C588.362 473.843 547.691 441.96 502.587 402.881C454.986 361.606 405.991 313.721 356.104 257.97C297.545 192.389 203.452 140.902 127.882 208.472Z" stroke="url(#paint11_linear_16_5064)" stroke-opacity="0.2" stroke-width="3"/>
<path d="M663.731 536.567C595.261 492.907 468.134 419.01 348.234 259.937C294.934 189.104 201.845 122.562 120.44 195.199C37.0376 269.638 74.7325 405.937 113.445 493.617C161.176 601.679 223.13 708.619 225.881 829.815C228.833 957.603 166.707 1096.71 214.95 1221.19C248.984 1309.05 338.357 1369.44 431.976 1380.14C525.595 1390.84 621.06 1356.12 694.558 1297.27C768.069 1238.31 821.102 1156.81 858.005 1070.13C932.829 894.135 910.257 720.625 755.311 599.592C726.144 576.788 695.017 556.508 663.731 536.567Z" stroke="url(#paint12_linear_16_5064)" stroke-opacity="0.2" stroke-width="3"/>
<defs>
<filter id="filter0_f_16_5064" x="1232.73" y="277.527" width="309.711" height="380.958" filterUnits="userSpaceOnUse" color-interpolation-filters="sRGB">
<feFlood flood-opacity="0" result="BackgroundImageFix"/>
<feBlend mode="normal" in="SourceGraphic" in2="BackgroundImageFix" result="shape"/>
<feGaussianBlur stdDeviation="2" result="effect1_foregroundBlur_16_5064"/>
</filter>
<filter id="filter1_f_16_5064" x="1229.97" y="265.346" width="329.711" height="400.958" filterUnits="userSpaceOnUse" color-interpolation-filters="sRGB">
<feFlood flood-opacity="0" result="BackgroundImageFix"/>
<feBlend mode="normal" in="SourceGraphic" in2="BackgroundImageFix" result="shape"/>
<feGaussianBlur stdDeviation="7" result="effect1_foregroundBlur_16_5064"/>
</filter>
<filter id="filter2_f_16_5064" x="1229.31" y="239.308" width="370.836" height="441.041" filterUnits="userSpaceOnUse" color-interpolation-filters="sRGB">
<feFlood flood-opacity="0" result="BackgroundImageFix"/>
<feBlend mode="normal" in="SourceGraphic" in2="BackgroundImageFix" result="shape"/>
<feGaussianBlur stdDeviation="17" result="effect1_foregroundBlur_16_5064"/>
</filter>
<filter id="filter3_f_16_5064" x="1249.59" y="181.361" width="449.711" height="520.958" filterUnits="userSpaceOnUse" color-interpolation-filters="sRGB">
<feFlood flood-opacity="0" result="BackgroundImageFix"/>
<feBlend mode="normal" in="SourceGraphic" in2="BackgroundImageFix" result="shape"/>
<feGaussianBlur stdDeviation="37" result="effect1_foregroundBlur_16_5064"/>
</filter>
<filter id="filter4_f_16_5064" x="1277.36" y="129.075" width="555.831" height="576.833" filterUnits="userSpaceOnUse" color-interpolation-filters="sRGB">
<feFlood flood-opacity="0" result="BackgroundImageFix"/>
<feBlend mode="normal" in="SourceGraphic" in2="BackgroundImageFix" result="shape"/>
<feGaussianBlur stdDeviation="65" result="effect1_foregroundBlur_16_5064"/>
</filter>
<filter id="filter5_f_16_5064" x="742.882" y="349.448" width="609.469" height="534.712" filterUnits="userSpaceOnUse" color-interpolation-filters="sRGB">
<feFlood flood-opacity="0" result="BackgroundImageFix"/>
<feBlend mode="normal" in="SourceGraphic" in2="BackgroundImageFix" result="shape"/>
<feGaussianBlur stdDeviation="2" result="effect1_foregroundBlur_16_5064"/>
</filter>
<filter id="filter6_f_16_5064" x="722.296" y="237.209" width="734.572" height="655.479" filterUnits="userSpaceOnUse" color-interpolation-filters="sRGB">
<feFlood flood-opacity="0" result="BackgroundImageFix"/>
<feBlend mode="normal" in="SourceGraphic" in2="BackgroundImageFix" result="shape"/>
<feGaussianBlur stdDeviation="7" result="effect1_foregroundBlur_16_5064"/>
</filter>
<filter id="filter7_f_16_5064" x="681.277" y="94.6554" width="909.939" height="803.583" filterUnits="userSpaceOnUse" color-interpolation-filters="sRGB">
<feFlood flood-opacity="0" result="BackgroundImageFix"/>
<feBlend mode="normal" in="SourceGraphic" in2="BackgroundImageFix" result="shape"/>
<feGaussianBlur stdDeviation="10" result="effect1_foregroundBlur_16_5064"/>
</filter>
<filter id="filter8_f_16_5064" x="602.995" y="-32.823" width="943.895" height="886.568" filterUnits="userSpaceOnUse" color-interpolation-filters="sRGB">
<feFlood flood-opacity="0" result="BackgroundImageFix"/>
<feBlend mode="normal" in="SourceGraphic" in2="BackgroundImageFix" result="shape"/>
<feGaussianBlur stdDeviation="27" result="effect1_foregroundBlur_16_5064"/>
</filter>
<filter id="filter9_f_16_5064" x="482.118" y="-233.312" width="1129.08" height="1067.9" filterUnits="userSpaceOnUse" color-interpolation-filters="sRGB">
<feFlood flood-opacity="0" result="BackgroundImageFix"/>
<feBlend mode="normal" in="SourceGraphic" in2="BackgroundImageFix" result="shape"/>
<feGaussianBlur stdDeviation="67" result="effect1_foregroundBlur_16_5064"/>
</filter>
<filter id="filter10_f_16_5064" x="717.373" y="-15.5955" width="900.541" height="888.343" filterUnits="userSpaceOnUse" color-interpolation-filters="sRGB">
<feFlood flood-opacity="0" result="BackgroundImageFix"/>
<feBlend mode="normal" in="SourceGraphic" in2="BackgroundImageFix" result="shape"/>
<feGaussianBlur stdDeviation="31" result="effect1_foregroundBlur_16_5064"/>
</filter>
<filter id="filter11_f_16_5064" x="596.799" y="404.814" width="276.602" height="420.949" filterUnits="userSpaceOnUse" color-interpolation-filters="sRGB">
<feFlood flood-opacity="0" result="BackgroundImageFix"/>
<feBlend mode="normal" in="SourceGraphic" in2="BackgroundImageFix" result="shape"/>
<feGaussianBlur stdDeviation="3.7691" result="effect1_foregroundBlur_16_5064"/>
</filter>
<filter id="filter12_f_16_5064" x="592.832" y="402.477" width="271.058" height="463.27" filterUnits="userSpaceOnUse" color-interpolation-filters="sRGB">
<feFlood flood-opacity="0" result="BackgroundImageFix"/>
<feBlend mode="normal" in="SourceGraphic" in2="BackgroundImageFix" result="shape"/>
<feGaussianBlur stdDeviation="3.82675" result="effect1_foregroundBlur_16_5064"/>
</filter>
<filter id="filter13_f_16_5064" x="553.707" y="389.882" width="324.291" height="503.056" filterUnits="userSpaceOnUse" color-interpolation-filters="sRGB">
<feFlood flood-opacity="0" result="BackgroundImageFix"/>
<feBlend mode="normal" in="SourceGraphic" in2="BackgroundImageFix" result="shape"/>
<feGaussianBlur stdDeviation="9.29354" result="effect1_foregroundBlur_16_5064"/>
</filter>
<filter id="filter14_f_16_5064" x="456.542" y="351.907" width="423.727" height="635.805" filterUnits="userSpaceOnUse" color-interpolation-filters="sRGB">
<feFlood flood-opacity="0" result="BackgroundImageFix"/>
<feBlend mode="normal" in="SourceGraphic" in2="BackgroundImageFix" result="shape"/>
<feGaussianBlur stdDeviation="20.2271" result="effect1_foregroundBlur_16_5064"/>
</filter>
<filter id="filter15_f_16_5064" x="410.396" y="256.337" width="469.208" height="763.02" filterUnits="userSpaceOnUse" color-interpolation-filters="sRGB">
<feFlood flood-opacity="0" result="BackgroundImageFix"/>
<feBlend mode="normal" in="SourceGraphic" in2="BackgroundImageFix" result="shape"/>
<feGaussianBlur stdDeviation="22.1564" result="effect1_foregroundBlur_16_5064"/>
</filter>
<filter id="filter16_f_16_5064" x="1086.55" y="311.545" width="417.394" height="230.382" filterUnits="userSpaceOnUse" color-interpolation-filters="sRGB">
<feFlood flood-opacity="0" result="BackgroundImageFix"/>
<feBlend mode="normal" in="SourceGraphic" in2="BackgroundImageFix" result="shape"/>
<feGaussianBlur stdDeviation="3.7691" result="effect1_foregroundBlur_16_5064"/>
</filter>
<filter id="filter17_f_16_5064" x="1041.42" y="312.559" width="471.752" height="226.936" filterUnits="userSpaceOnUse" color-interpolation-filters="sRGB">
<feFlood flood-opacity="0" result="BackgroundImageFix"/>
<feBlend mode="normal" in="SourceGraphic" in2="BackgroundImageFix" result="shape"/>
<feGaussianBlur stdDeviation="3.82675" result="effect1_foregroundBlur_16_5064"/>
</filter>
<filter id="filter18_f_16_5064" x="1008.22" y="248.401" width="507.482" height="301.525" filterUnits="userSpaceOnUse" color-interpolation-filters="sRGB">
<feFlood flood-opacity="0" result="BackgroundImageFix"/>
<feBlend mode="normal" in="SourceGraphic" in2="BackgroundImageFix" result="shape"/>
<feGaussianBlur stdDeviation="9.29354" result="effect1_foregroundBlur_16_5064"/>
</filter>
<filter id="filter19_f_16_5064" x="893.958" y="193.733" width="647.619" height="364.564" filterUnits="userSpaceOnUse" color-interpolation-filters="sRGB">
<feFlood flood-opacity="0" result="BackgroundImageFix"/>
<feBlend mode="normal" in="SourceGraphic" in2="BackgroundImageFix" result="shape"/>
<feGaussianBlur stdDeviation="20.2271" result="effect1_foregroundBlur_16_5064"/>
</filter>
<filter id="filter20_f_16_5064" x="851.262" y="127.903" width="746.813" height="416.125" filterUnits="userSpaceOnUse" color-interpolation-filters="sRGB">
<feFlood flood-opacity="0" result="BackgroundImageFix"/>
<feBlend mode="normal" in="SourceGraphic" in2="BackgroundImageFix" result="shape"/>
<feGaussianBlur stdDeviation="22.1564" result="effect1_foregroundBlur_16_5064"/>
</filter>
<linearGradient id="paint0_linear_16_5064" x1="2092.49" y1="617.569" x2="2092.49" y2="102.871" gradientUnits="userSpaceOnUse">
<stop stop-color="white"/>
<stop offset="1" stop-color="white" stop-opacity="0"/>
</linearGradient>
<linearGradient id="paint1_linear_16_5064" x1="868.083" y1="820.672" x2="1243.57" y2="262.451" gradientUnits="userSpaceOnUse">
<stop stop-color="#C4C4C4"/>
<stop offset="1" stop-color="#C4C4C4" stop-opacity="0"/>
</linearGradient>
<linearGradient id="paint2_linear_16_5064" x1="863.018" y1="550.628" x2="749.803" y2="636.678" gradientUnits="userSpaceOnUse">
<stop stop-color="#C4C4C4"/>
<stop offset="1" stop-color="#C4C4C4" stop-opacity="0"/>
</linearGradient>
<linearGradient id="paint3_linear_16_5064" x1="1413.43" y1="526.236" x2="1294.54" y2="448.212" gradientUnits="userSpaceOnUse">
<stop stop-color="#C4C4C4"/>
<stop offset="1" stop-color="#C4C4C4" stop-opacity="0"/>
</linearGradient>
<linearGradient id="paint4_linear_16_5064" x1="572.967" y1="262.455" x2="463.764" y2="1217.86" gradientUnits="userSpaceOnUse">
<stop stop-color="#9F89CE"/>
<stop offset="1" stop-color="#2A79FF"/>
</linearGradient>
<linearGradient id="paint5_linear_16_5064" x1="559.053" y1="260.745" x2="447.506" y2="1236.66" gradientUnits="userSpaceOnUse">
<stop stop-color="#9F89CE"/>
<stop offset="1" stop-color="#2A79FF"/>
</linearGradient>
<linearGradient id="paint6_linear_16_5064" x1="545.967" y1="256.572" x2="431.772" y2="1255.65" gradientUnits="userSpaceOnUse">
<stop stop-color="#9F89CE"/>
<stop offset="1" stop-color="#2A79FF"/>
</linearGradient>
<linearGradient id="paint7_linear_16_5064" x1="534.438" y1="250.242" x2="417.333" y2="1274.78" gradientUnits="userSpaceOnUse">
<stop stop-color="#9F89CE"/>
<stop offset="1" stop-color="#2A79FF"/>
</linearGradient>
<linearGradient id="paint8_linear_16_5064" x1="525.305" y1="242.148" x2="405.059" y2="1294.16" gradientUnits="userSpaceOnUse">
<stop stop-color="#9F89CE"/>
<stop offset="1" stop-color="#2A79FF"/>
</linearGradient>
<linearGradient id="paint9_linear_16_5064" x1="519.753" y1="232.706" x2="396.182" y2="1313.81" gradientUnits="userSpaceOnUse">
<stop stop-color="#9F89CE"/>
<stop offset="1" stop-color="#2A79FF"/>
</linearGradient>
<linearGradient id="paint10_linear_16_5064" x1="520.358" y1="222.688" x2="393.317" y2="1334.15" gradientUnits="userSpaceOnUse">
<stop stop-color="#9F89CE"/>
<stop offset="1" stop-color="#2A79FF"/>
</linearGradient>
<linearGradient id="paint11_linear_16_5064" x1="524.584" y1="212.152" x2="393.942" y2="1355.13" gradientUnits="userSpaceOnUse">
<stop stop-color="#9F89CE"/>
<stop offset="1" stop-color="#2A79FF"/>
</linearGradient>
<linearGradient id="paint12_linear_16_5064" x1="531.164" y1="201.22" x2="396.871" y2="1376.13" gradientUnits="userSpaceOnUse">
<stop stop-color="#9F89CE"/>
<stop offset="1" stop-color="#2A79FF"/>
</linearGradient>
</defs>
</svg>
