<svg width="122" height="56" viewBox="0 0 122 56" fill="none" xmlns="http://www.w3.org/2000/svg">
<path d="M10.36 25.096L9.968 20.84C10.248 20.2613 10.836 19.6267 11.732 18.936C12.628 18.2267 13.6827 17.62 14.896 17.116C16.128 16.612 17.3787 16.36 18.648 16.36C19.3573 16.36 19.964 16.388 20.468 16.444C20.9907 16.5 21.3733 16.6027 21.616 16.752V22.8C21.336 22.6507 20.9067 22.492 20.328 22.324C19.768 22.156 18.8533 22.072 17.584 22.072C16.4267 22.072 15.3813 22.24 14.448 22.576C13.5333 22.8933 12.7307 23.2853 12.04 23.752C11.3493 24.2187 10.7893 24.6667 10.36 25.096ZM4.256 48V16.864H9.744L10.192 20.84L10.696 23.192V48H4.256ZM42.1431 48.448C37.6631 48.448 34.2097 47.0293 31.7831 44.192C29.3564 41.3547 28.1431 37.416 28.1431 32.376C28.1431 29.352 28.6751 26.6453 29.7391 24.256C30.8217 21.8667 32.4084 19.972 34.4991 18.572C36.6084 17.172 39.1937 16.4533 42.2551 16.416C43.8231 16.3787 45.2977 16.6027 46.6791 17.088C48.0604 17.5733 49.2831 18.3107 50.3471 19.3C51.4111 20.2707 52.2511 21.5027 52.8671 22.996C53.5017 24.4893 53.8471 26.2347 53.9031 28.232C53.9031 29.408 53.8937 30.4627 53.8751 31.396C53.8564 32.3107 53.7724 33.1227 53.6231 33.832H31.8951L32.4551 29.744H47.8551C47.9484 28.2507 47.8551 26.8413 47.5751 25.516C47.3137 24.172 46.7351 23.0893 45.8391 22.268C44.9617 21.428 43.6551 21.008 41.9191 21.008C40.4631 21.008 39.1564 21.4187 37.9991 22.24C36.8417 23.0427 35.9457 24.4053 35.3111 26.328C34.6764 28.2507 34.4151 30.8827 34.5271 34.224C34.6391 36.576 35.1151 38.4333 35.9551 39.796C36.7951 41.1587 37.8964 42.1293 39.2591 42.708C40.6217 43.2867 42.1431 43.576 43.8231 43.576C44.5324 43.576 45.4004 43.5013 46.4271 43.352C47.4537 43.184 48.4431 42.9787 49.3951 42.736C50.3657 42.4747 51.1031 42.1947 51.6071 41.896L52.8391 45.592C52.1484 46.152 51.2057 46.6467 50.0111 47.076C48.8351 47.5053 47.5564 47.8413 46.1751 48.084C44.7937 48.3267 43.4497 48.448 42.1431 48.448ZM62.2256 32.768C62.2256 29.688 62.7856 26.916 63.9056 24.452C65.0256 21.988 66.7056 20.0373 68.9456 18.6C71.1856 17.144 73.9856 16.416 77.3456 16.416C79.3056 16.416 80.967 16.5933 82.3296 16.948C83.6923 17.3027 84.6256 17.648 85.1296 17.984L84.1216 23.08C83.3376 22.5387 82.395 22.1373 81.2936 21.876C80.1923 21.596 78.8576 21.456 77.2896 21.456C75.8896 21.456 74.5363 21.8013 73.2296 22.492C71.923 23.164 70.831 24.2467 69.9536 25.74C69.0763 27.2333 68.591 29.2027 68.4976 31.648C68.423 34.224 68.759 36.3987 69.5056 38.172C70.271 39.9267 71.3163 41.2613 72.6416 42.176C73.9856 43.072 75.479 43.52 77.1216 43.52C78.671 43.52 80.099 43.324 81.4056 42.932C82.731 42.54 83.7296 42.1387 84.4016 41.728L85.6336 45.48C84.6816 46.376 83.3376 47.0947 81.6016 47.636C79.8656 48.1773 78.0176 48.448 76.0576 48.448C73.0896 48.448 70.579 47.7573 68.5256 46.376C66.4723 44.9947 64.9043 43.128 63.8216 40.776C62.7576 38.4053 62.2256 35.736 62.2256 32.768ZM107.433 48.448C102.953 48.448 99.5 47.0293 97.0734 44.192C94.6467 41.3547 93.4334 37.416 93.4334 32.376C93.4334 29.352 93.9654 26.6453 95.0294 24.256C96.112 21.8667 97.6987 19.972 99.7894 18.572C101.899 17.172 104.484 16.4533 107.545 16.416C109.113 16.3787 110.588 16.6027 111.969 17.088C113.351 17.5733 114.573 18.3107 115.637 19.3C116.701 20.2707 117.541 21.5027 118.157 22.996C118.792 24.4893 119.137 26.2347 119.193 28.232C119.193 29.408 119.184 30.4627 119.165 31.396C119.147 32.3107 119.063 33.1227 118.913 33.832H97.1854L97.7454 29.744H113.145C113.239 28.2507 113.145 26.8413 112.865 25.516C112.604 24.172 112.025 23.0893 111.129 22.268C110.252 21.428 108.945 21.008 107.209 21.008C105.753 21.008 104.447 21.4187 103.289 22.24C102.132 23.0427 101.236 24.4053 100.601 26.328C99.9667 28.2507 99.7054 30.8827 99.8174 34.224C99.9294 36.576 100.405 38.4333 101.245 39.796C102.085 41.1587 103.187 42.1293 104.549 42.708C105.912 43.2867 107.433 43.576 109.113 43.576C109.823 43.576 110.691 43.5013 111.717 43.352C112.744 43.184 113.733 42.9787 114.685 42.736C115.656 42.4747 116.393 42.1947 116.897 41.896L118.129 45.592C117.439 46.152 116.496 46.6467 115.301 47.076C114.125 47.5053 112.847 47.8413 111.465 48.084C110.084 48.3267 108.74 48.448 107.433 48.448Z" fill="white"/>
</svg>
