<svg width="28" height="28" viewBox="0 0 28 28" fill="none" xmlns="http://www.w3.org/2000/svg">
<path d="M12.25 5C16.2541 5 19.5 8.24594 19.5 12.25C19.5 13.9819 18.8927 15.5719 17.8795 16.8188L22.7803 21.7197C23.0732 22.0126 23.0732 22.4874 22.7803 22.7803C22.5141 23.0466 22.0974 23.0708 21.8038 22.8529L21.7197 22.7803L16.8188 17.8795C15.5719 18.8927 13.9819 19.5 12.25 19.5C8.24596 19.5 5.00002 16.2541 5.00002 12.25C5.00002 8.24594 8.24596 5 12.25 5ZM12.25 6.5C9.07438 6.5 6.50002 9.07436 6.50002 12.25C6.50002 15.4256 9.07438 18 12.25 18C15.4256 18 18 15.4256 18 12.25C18 9.07436 15.4256 6.5 12.25 6.5Z" fill="white"/>
</svg>
