<svg width="1034" height="1278" viewBox="0 0 1034 1278" fill="none" xmlns="http://www.w3.org/2000/svg">
<path d="M632.479 613.526C619.849 599.659 613.56 582.576 619.762 556.529C640.798 468.63 702.435 393.376 694.294 298.439C690.07 249.7 664.869 207.879 627.826 176.65C452.583 29.407 279.096 102.986 225.75 150.64C171.077 199.457 195.762 288.639 221.216 346.017C252.552 416.728 293.037 486.813 294.845 566.095C296.744 649.806 315.279 839.817 346.935 921.315C369.269 978.814 427.248 1057.83 488.56 1064.83C549.872 1071.84 612.883 1009.65 661.01 971.07C709.138 932.495 897.451 1094.97 921.626 1038.13C954.133 961.692 892.415 871.502 847.866 813.972C802.692 755.654 749.725 703.852 691.745 658.284C670.252 641.494 647.119 629.652 632.479 613.526Z" stroke="url(#paint0_linear_33_2)" stroke-opacity="0.2" stroke-width="3"/>
<path d="M218.426 137.38C160.165 189.37 186.562 284.482 213.616 345.626C246.929 420.983 290.23 495.69 292.034 580.227C294.021 669.443 302.538 853.052 336.326 939.931C360.129 1001.3 421.969 1077.89 487.407 1085.37C545.89 1092.05 605.693 1037.01 652.786 1002.26C701.311 966.479 872.242 1105.46 899.173 1051.69C936.352 977.219 889.793 888.164 855.085 827.1C820.286 765.788 775.246 710.471 723.175 661.28C703.876 643.068 682.74 629.424 668.706 612.172C656.643 597.534 650.027 580.175 653.749 554.919C659.413 516.865 670.076 481.055 679.27 445.555C687.15 415.279 693.824 385.105 694.697 353.432C695.138 338.073 693.72 322.263 690.497 305.531C681.597 260.079 654.923 219.643 616.573 187.308C559.571 139.464 502.928 110.414 449.647 95.843C349.817 68.4263 259.667 100.526 218.426 137.38Z" stroke="url(#paint1_linear_33_2)" stroke-opacity="0.2" stroke-width="3"/>
<path d="M210.985 124.107C149.136 179.27 177.126 280.298 205.898 345.221C241.306 425.238 287.188 504.54 289.225 594.359C291.299 689.079 289.783 866.406 325.586 958.651C350.871 1023.77 416.676 1098.07 486.006 1105.99C541.776 1112.37 598.386 1064.37 644.313 1033.54C693.353 1000.57 847.006 1116.2 876.352 1065.32C918.322 992.836 886.673 905.008 861.924 840.424C837.252 776.208 800.506 717.3 754.344 664.484C737.342 644.981 718.204 629.535 704.671 611.027C693.187 595.5 686.14 577.733 687.37 553.387C689.271 515.858 693.772 480.658 696.528 446.094C698.914 416.863 700.157 388.218 696.674 358.077C694.963 343.787 691.419 328.809 686.319 312.817C673.084 270.811 644.48 231.588 605.059 198.176C549.73 151.359 494.752 118.199 441.66 97.7968C349.457 62.1737 257.943 82.173 210.985 124.107Z" stroke="url(#paint2_linear_33_2)" stroke-opacity="0.2" stroke-width="3"/>
<path d="M203.543 110.834C138.094 169.288 167.69 276.113 198.049 344.922C235.552 429.597 284.119 513.626 286.166 608.582C288.445 708.82 276.794 879.733 314.61 977.344C341.378 1046.22 411.03 1118.21 484.486 1126.6C537.427 1132.65 591.066 1091.84 635.841 1064.83C685.383 1034.77 821.784 1126.81 853.65 1078.97C900.528 1008.48 883.658 921.983 868.894 853.643C854.466 786.537 825.896 724.025 785.657 667.466C770.835 646.66 753.812 629.425 740.769 609.778C729.864 593.361 722.372 575.304 721.227 551.881C719.365 514.878 717.704 480.287 714.036 446.542C710.914 418.473 706.858 391.253 698.901 362.632C695.169 349.305 689.472 335.395 682.523 319.909C665.07 281.363 634.535 243.352 593.925 208.848C540.126 163.281 486.903 126.261 433.936 99.5418C348.975 56.9825 256.219 63.8199 203.543 110.834Z" stroke="url(#paint3_linear_33_2)" stroke-opacity="0.2" stroke-width="3"/>
<path d="M196.102 97.5607C127.064 159.189 158.254 271.929 190.331 344.517C229.798 433.956 281.077 522.475 283.356 622.714C285.723 728.457 264.039 893.087 304.002 995.96C332.238 1068.71 405.869 1138.28 483.32 1147.25C533.431 1152.98 584.203 1119.48 627.617 1096.02C677.765 1069.02 796.902 1137.58 831.21 1092.41C883.232 1023.94 880.774 938.854 876.113 866.772C871.667 796.984 851.405 730.763 817.074 670.579C804.549 648.483 789.525 629.445 776.97 608.66C766.631 591.472 758.708 573.007 755.083 550.376C749.236 513.753 741.741 480.048 731.53 447.108C723.149 420.111 713.558 394.289 700.983 367.409C695.229 355.045 687.394 342.085 678.45 327.326C657.028 292.149 624.196 255.429 582.515 219.847C530.259 175.412 478.723 135.12 425.921 101.731C348.295 52.4851 254.625 45.3621 196.102 97.5607Z" stroke="url(#paint4_linear_33_2)" stroke-opacity="0.2" stroke-width="3"/>
<path d="M188.66 84.2876C116.035 149.089 148.818 267.745 182.613 344.113C224.176 438.211 278.153 531.339 280.442 636.715C282.896 747.962 251.076 906.178 293.157 1014.55C322.876 1091.05 400.354 1158.31 481.932 1167.76C529.213 1173.16 577.118 1146.98 619.158 1127.18C670.03 1103.25 771.915 1148.23 808.403 1105.93C865.674 1039.61 877.287 955.775 882.965 879.978C888.383 807.495 876.546 737.578 848.151 673.534C837.793 650.252 824.897 629.308 812.962 607.279C803.189 589.32 794.717 570.434 788.835 548.739C778.989 512.615 765.817 479.456 748.92 447.543C735.267 421.735 720.377 397.338 703.092 371.95C695.435 360.563 685.591 348.449 674.535 334.404C649.394 302.505 614.12 267.297 571.145 230.492C520.432 187.189 470.177 144.058 417.843 103.436C347.18 48.6548 252.901 27.0089 188.66 84.2876Z" stroke="url(#paint5_linear_33_2)" stroke-opacity="0.2" stroke-width="3"/>
<path d="M181.323 71.1459C105.11 139.12 139.5 263.574 174.895 343.708C218.553 442.465 275.111 540.188 277.632 650.847C280.292 767.613 238.335 919.413 282.431 1033.15C313.631 1113.4 395.061 1178.49 480.544 1188.26C525.113 1193.36 570.019 1174.6 610.698 1158.35C662.281 1137.61 747.033 1159 785.714 1119.46C848.338 1055.43 873.932 972.592 889.948 893.079C905.126 817.77 901.832 744.171 879.464 676.516C871.285 651.93 860.387 629.184 849.058 606.03C839.865 587.181 830.83 567.992 822.692 547.234C808.729 511.595 790.103 479.126 766.428 447.991C747.515 423.254 727.222 400.151 705.319 376.505C695.64 366.082 683.789 354.813 670.607 341.6C641.892 312.756 603.926 279.152 559.893 241.151C510.723 198.98 461.353 153.322 409.987 105.285C345.553 45.1243 251.176 8.65567 181.323 71.1459Z" stroke="url(#paint6_linear_33_2)" stroke-opacity="0.2" stroke-width="3"/>
<path d="M173.882 57.8727C94.0673 129.139 130.169 259.522 167.282 343.436C213.035 446.852 272.291 549.183 274.809 665.097C277.556 787.367 225.567 932.885 271.795 1052C304.347 1136.11 389.755 1198.79 479.365 1209.03C521.104 1213.8 563.221 1202.73 602.565 1189.79C654.95 1172.48 722.464 1170.17 763.352 1133.27C831.302 1071.76 870.785 989.672 897.127 906.561C921.946 828.412 927.182 751.25 910.855 679.865C904.855 653.975 895.955 629.427 885.233 605.148C876.488 585.514 866.904 565.904 856.521 545.964C838.415 511.046 814.271 478.783 783.895 448.794C759.855 425.023 734.145 403.331 707.491 381.531C695.91 372.085 682.064 361.544 666.639 349.15C634.362 323.243 593.691 291.36 548.587 252.281C500.987 211.006 451.992 163.121 402.104 107.37C343.545 41.7892 249.452 -9.69752 173.882 57.8727Z" stroke="url(#paint7_linear_33_2)" stroke-opacity="0.2" stroke-width="3"/>
<path d="M709.731 385.968C641.261 342.307 514.134 268.411 394.234 109.338C340.934 38.5045 247.845 -28.0374 166.44 44.5995C83.0378 119.039 120.733 255.337 159.446 343.018C207.177 451.079 269.131 558.019 271.881 679.215C274.834 807.004 212.708 946.107 260.95 1070.59C294.984 1158.45 384.357 1218.84 477.976 1229.54C571.595 1240.24 667.06 1205.52 740.558 1146.67C814.07 1087.71 867.103 1006.21 904.006 919.531C978.829 743.536 956.257 570.026 801.311 448.992C772.145 426.189 741.017 405.908 709.731 385.968Z" stroke="url(#paint8_linear_33_2)" stroke-opacity="0.2" stroke-width="3"/>
<defs>
<linearGradient id="paint0_linear_33_2" x1="618.968" y1="111.856" x2="509.765" y2="1067.26" gradientUnits="userSpaceOnUse">
<stop stop-color="#9F89CE"/>
<stop offset="1" stop-color="#2A79FF"/>
</linearGradient>
<linearGradient id="paint1_linear_33_2" x1="605.054" y1="110.145" x2="493.506" y2="1086.06" gradientUnits="userSpaceOnUse">
<stop stop-color="#9F89CE"/>
<stop offset="1" stop-color="#2A79FF"/>
</linearGradient>
<linearGradient id="paint2_linear_33_2" x1="591.967" y1="105.972" x2="477.772" y2="1105.05" gradientUnits="userSpaceOnUse">
<stop stop-color="#9F89CE"/>
<stop offset="1" stop-color="#2A79FF"/>
</linearGradient>
<linearGradient id="paint3_linear_33_2" x1="580.438" y1="99.6422" x2="463.333" y2="1124.18" gradientUnits="userSpaceOnUse">
<stop stop-color="#9F89CE"/>
<stop offset="1" stop-color="#2A79FF"/>
</linearGradient>
<linearGradient id="paint4_linear_33_2" x1="571.306" y1="91.5487" x2="451.06" y2="1143.56" gradientUnits="userSpaceOnUse">
<stop stop-color="#9F89CE"/>
<stop offset="1" stop-color="#2A79FF"/>
</linearGradient>
<linearGradient id="paint5_linear_33_2" x1="565.753" y1="82.1064" x2="442.182" y2="1163.21" gradientUnits="userSpaceOnUse">
<stop stop-color="#9F89CE"/>
<stop offset="1" stop-color="#2A79FF"/>
</linearGradient>
<linearGradient id="paint6_linear_33_2" x1="566.358" y1="72.0885" x2="439.317" y2="1183.55" gradientUnits="userSpaceOnUse">
<stop stop-color="#9F89CE"/>
<stop offset="1" stop-color="#2A79FF"/>
</linearGradient>
<linearGradient id="paint7_linear_33_2" x1="570.584" y1="61.5526" x2="439.942" y2="1204.53" gradientUnits="userSpaceOnUse">
<stop stop-color="#9F89CE"/>
<stop offset="1" stop-color="#2A79FF"/>
</linearGradient>
<linearGradient id="paint8_linear_33_2" x1="577.164" y1="50.6204" x2="442.872" y2="1225.53" gradientUnits="userSpaceOnUse">
<stop stop-color="#9F89CE"/>
<stop offset="1" stop-color="#2A79FF"/>
</linearGradient>
</defs>
</svg>
